<svg enable-background="new -0.7 -0.6 27 30" height="30px" version="1.1" viewBox="-0.7 -0.6 27 30" width="27px"
  xml:space="preserve" xmlns="http://www.w3.org/2000/svg" xmlns:xlink="http://www.w3.org/1999/xlink">
  <defs />
  <path clip-rule="evenodd"
    d="M24.7,23.6H6.3c-0.5,0-1.3-0.9-1.3-1.4V1.4C5,0.9,5.9,0,6.3,0h13.7  L26,6.7v15.6C26,22.8,25.1,23.6,24.7,23.6z M7.4,3.8v16c0,0.4,0.7,1.1,1,1.1h14.1c0.4,0,1-0.7,1-1V9.6h-6.4V2.7H8.5  C8.1,2.7,7.4,3.4,7.4,3.8z M19,2.7L19,2.7l0,5.1h4.6L19,2.7z M2.4,8.8v16c0,0.4,0.7,1.1,1,1.1h14.1c0.3,0,0.9-0.5,1-0.9H21v2.3  c0,0.5-0.9,1.3-1.3,1.3H1.3c-0.5,0-1.3-0.9-1.3-1.4V6.4C0,5.9,0.9,5,1.3,5H4v2.7H3.5C3.1,7.7,2.4,8.4,2.4,8.8z"
    fill="#b9ac38" fill-rule="evenodd" /></svg>